<svg xmlns="http://www.w3.org/2000/svg" width="35.708" height="33.222" viewBox="0 0 35.708 33.222">
  <g id="noun_Home_3238641" transform="translate(-12.76 -12.749)">
    <path id="Path_441" data-name="Path 441" d="M32.422,13.255l.137.1L48.154,25.695a.812.812,0,0,1,.312.565.792.792,0,0,1-.209.6l-.571.638a.944.944,0,0,1-1.257.1h0l-15.6-12.344a.049.049,0,0,0-.046,0h0L15.446,27.332h0v16.1a.05.05,0,0,0,0,.043H46.491a.868.868,0,0,1,.9.835v.835a.8.8,0,0,1-.263.588.927.927,0,0,1-.634.241H15.48a2.649,2.649,0,0,1-2.72-2.4V27.37a2.478,2.478,0,0,1,.829-1.829l.137-.117L29.04,13.35a2.868,2.868,0,0,1,3.383-.1Z" transform="translate(0 0)" fill="#ffffff"/>
    <path id="Path_442" data-name="Path 442" d="M42.913,40.643a.891.891,0,0,1,1.263,0l.634.663.074.086a.886.886,0,0,1-.074,1.177l-3.931,3.88H57.164a.891.891,0,0,1,.891.914v.891a.891.891,0,0,1-.891.891H40.9l3.937,3.943a.891.891,0,0,1,.074,1.177l-.074.086-.629.629a.891.891,0,0,1-1.263,0l-6.548-6.554a.891.891,0,0,1,0-1.263Z" transform="translate(-10.016 -14.329)" fill="#ffffff"/>
  </g>
</svg>
