<svg xmlns="http://www.w3.org/2000/svg" width="34.706" height="33.222" viewBox="0 0 34.706 33.222">
  <g id="Group_538" data-name="Group 538" transform="translate(-2222.253 1058.225)">
    <path id="Path_441" data-name="Path 441" d="M28.356,13.255l-.133.1L13.066,25.695a.818.818,0,0,0-.3.565.806.806,0,0,0,.2.6l.555.638a.9.9,0,0,0,1.222.1h0L29.9,15.259a.046.046,0,0,1,.044,0h0L44.856,27.332h0v16.1a.051.051,0,0,1,0,.043H14.682a.854.854,0,0,0-.872.835v.835a.812.812,0,0,0,.256.588.887.887,0,0,0,.616.241h30.14a2.6,2.6,0,0,0,2.644-2.4V27.37a2.51,2.51,0,0,0-.805-1.829l-.133-.117L31.643,13.35a2.725,2.725,0,0,0-3.288-.1Z" transform="translate(2209.493 -1070.974)" fill="#ffffff"/>
    <path id="Path_442" data-name="Path 442" d="M51.274,40.643a.891.891,0,0,0-1.263,0l-.634.663-.074.086a.886.886,0,0,0,.074,1.177l3.931,3.88H37.023a.891.891,0,0,0-.891.914v.891a.891.891,0,0,0,.891.891H53.291l-3.937,3.943a.891.891,0,0,0-.074,1.177l.074.086.629.629a.891.891,0,0,0,1.263,0l6.548-6.554a.891.891,0,0,0,0-1.263Z" transform="translate(2186.551 -1085.303)" fill="#ffffff"/>
  </g>
</svg>
