<svg id="Group_536" data-name="Group 536" xmlns="http://www.w3.org/2000/svg" width="34.855" height="33.325" viewBox="0 0 34.855 33.325">
  <path id="Path_5" data-name="Path 5" d="M32.072,5.218H22.541V2.157A2.168,2.168,0,0,0,20.384,0H14.4a2.168,2.168,0,0,0-2.157,2.157V5.218H2.713A2.658,2.658,0,0,0,0,7.862v3.966a4.1,4.1,0,0,1,2.713-1.044H32.142a4.245,4.245,0,0,1,2.713,1.044V7.862A2.765,2.765,0,0,0,32.072,5.218ZM13.636,2.157a.772.772,0,0,1,.765-.765h5.983a.772.772,0,0,1,.765.765V5.218H13.636Z" fill="#565655"/>
  <path id="Path_6" data-name="Path 6" d="M32.072,17.6H2.713A2.717,2.717,0,0,0,0,20.313V35.967A2.717,2.717,0,0,0,2.713,38.68H32.142a2.717,2.717,0,0,0,2.713-2.713V20.313A2.777,2.777,0,0,0,32.072,17.6ZM17.393,35.48a7.062,7.062,0,1,1,7.1-7.027A7.067,7.067,0,0,1,17.393,35.48Z" transform="translate(0 -5.355)" fill="#565655"/>
</svg>
