<svg xmlns="http://www.w3.org/2000/svg" width="25.889" height="34.807" viewBox="0 0 25.889 34.807">
  <g id="noun_task_list_2707377" data-name="noun_task list_2707377" transform="translate(-6.956 -53.11)">
    <g id="Group_537" data-name="Group 537" transform="translate(6.956 53.11)">
      <path id="Path_443" data-name="Path 443" d="M173.859,53.11V81.728l-6.189,6.189h-19.7V53.11ZM158.794,73.691h11.5v1.643h-11.5ZM154.2,71.847a2.665,2.665,0,1,1-2.666,2.666A2.67,2.67,0,0,1,154.2,71.847Zm0,1.643a1.022,1.022,0,1,0,1.022,1.023A1.017,1.017,0,0,0,154.2,73.49Zm4.593-7.187h11.5v1.643h-11.5ZM154.2,64.459a2.666,2.666,0,1,1-2.666,2.666A2.67,2.67,0,0,1,154.2,64.459Zm0,1.644a1.022,1.022,0,1,0,1.022,1.022A1.017,1.017,0,0,0,154.2,66.1Zm4.593-7.186h11.5V60.56h-11.5ZM154.2,57.074a2.665,2.665,0,1,1-2.666,2.665A2.669,2.669,0,0,1,154.2,57.074Zm0,1.643a1.022,1.022,0,1,0,1.022,1.022A1.017,1.017,0,0,0,154.2,58.717Zm16.857,23.492h-2.905v2.905Zm-4.548,4.065V80.566h5.706V54.753h-22.6V86.274Z" transform="translate(-147.97 -53.11)" fill="#ffffff"/>
    </g>
  </g>
</svg>
