<?xml version="1.0" standalone="no"?>
<!DOCTYPE svg PUBLIC "-//W3C//DTD SVG 20010904//EN"
 "http://www.w3.org/TR/2001/REC-SVG-20010904/DTD/svg10.dtd">
<svg version="1.0" xmlns="http://www.w3.org/2000/svg"
 width="512.000000pt" height="453.000000pt" viewBox="0 0 512.000000 453.000000"
 preserveAspectRatio="xMidYMid meet">

<g transform="translate(0.000000,453.000000) scale(0.100000,-0.100000)"
fill="#ffffff" stroke="none">
<path d="M2654 4481 c-38 -27 -271 -198 -519 -380 l-450 -330 -5 137 c-5 143
-9 157 -50 185 -21 15 -58 17 -307 17 -280 0 -282 0 -297 -22 -14 -19 -16 -76
-16 -418 l0 -395 -229 -168 c-317 -231 -336 -256 -336 -422 0 -89 3 -106 27
-150 32 -62 104 -130 166 -157 26 -12 77 -23 114 -26 l68 -5 0 -352 0 -352 22
-20 c13 -11 31 -23 41 -26 27 -10 84 18 93 45 4 12 7 187 6 388 0 201 2 373 4
382 6 19 1737 1330 1759 1332 8 0 408 -296 889 -659 l876 -660 -3 -1098 -2
-1099 -33 -29 -32 -29 -510 0 -510 0 0 685 0 686 -25 24 -24 25 -624 0 -624 0
-21 -23 -22 -23 0 -687 0 -687 -175 0 c-220 0 -245 -9 -245 -91 0 -18 10 -39
25 -55 l24 -24 1383 2 1383 3 55 31 c30 17 70 50 87 73 66 85 63 36 63 1191
l0 1047 66 6 c127 12 230 84 283 196 21 46 26 70 26 136 -1 98 -32 174 -97
236 -24 22 -524 393 -1113 825 -770 564 -1077 784 -1096 784 -15 0 -55 -21
-95 -49z m794 -653 c1498 -1099 1401 -1026 1423 -1071 41 -80 7 -182 -74 -221
-48 -22 -115 -20 -155 4 -29 18 -399 296 -1579 1187 -234 176 -288 213 -315
213 -28 0 -174 -106 -962 -701 -512 -386 -940 -705 -954 -710 -63 -24 -148 0
-193 54 -50 62 -42 161 19 219 21 20 267 203 547 409 281 205 742 543 1025
751 283 208 516 378 518 378 1 0 316 -230 700 -512z m-1938 -37 l0 -149 -165
-121 -165 -121 0 270 0 270 165 0 165 0 0 -149z m1740 -2991 l0 -630 -505 0
-505 0 0 623 c0 343 3 627 7 630 3 4 231 7 505 7 l498 0 0 -630z"/>
<path d="M845 1315 c-17 -16 -25 -35 -25 -57 0 -30 23 -56 230 -263 l230 -230
-586 -5 -586 -5 -24 -28 c-13 -15 -24 -37 -24 -48 0 -28 26 -75 45 -83 9 -3
278 -6 598 -6 l581 0 -232 -233 c-220 -221 -232 -235 -232 -270 0 -49 36 -87
82 -87 29 0 63 31 346 312 173 172 318 323 323 336 6 15 5 32 -4 50 -6 15
-152 165 -322 335 -280 276 -314 307 -343 307 -22 0 -41 -9 -57 -25z"/>
</g>
</svg>
