<?xml version="1.0" standalone="no"?>
<!DOCTYPE svg PUBLIC "-//W3C//DTD SVG 20010904//EN"
 "http://www.w3.org/TR/2001/REC-SVG-20010904/DTD/svg10.dtd">
<svg version="1.0" xmlns="http://www.w3.org/2000/svg"
 width="512.000000pt" height="453.000000pt" viewBox="0 0 512.000000 453.000000"
 preserveAspectRatio="xMidYMid meet">

<g transform="translate(0.000000,453.000000) scale(0.100000,-0.100000)"
fill="#ffffff"  stroke="none">
<path d="M1260 3735 c-597 -438 -1098 -810 -1114 -828 -84 -94 -107 -245 -54
-358 52 -112 155 -184 282 -196 l66 -6 0 -1047 c0 -1155 -3 -1106 63 -1191 17
-23 57 -56 87 -73 l55 -31 1383 -3 1383 -2 24 24 c15 16 25 37 25 55 0 82 -25
91 -245 91 l-175 0 0 688 0 689 -23 21 -23 22 -623 0 -622 0 -24 -25 -25 -24
0 -686 0 -685 -510 0 -510 0 -32 29 -33 29 -3 1099 -2 1098 875 660 c481 363
879 661 884 663 4 1 403 -296 887 -660 l879 -663 2 -380 c1 -209 5 -390 8
-403 7 -27 64 -55 92 -45 10 3 28 15 41 26 l22 20 0 352 0 352 70 5 c120 9
222 77 282 190 20 37 23 58 23 143 0 166 -19 190 -336 422 l-229 167 0 396 c0
342 -2 399 -16 418 -15 22 -17 22 -297 22 -367 0 -349 10 -357 -202 l-5 -137
-450 330 c-583 429 -583 429 -614 429 -19 0 -331 -223 -1111 -795z m2146 -150
c560 -411 1035 -763 1056 -782 61 -59 69 -158 19 -220 -45 -54 -130 -78 -193
-54 -14 5 -442 324 -954 710 -787 594 -934 701 -962 701 -27 0 -78 -35 -295
-198 -1184 -894 -1572 -1185 -1602 -1203 -76 -45 -190 -7 -230 77 -23 49 -16
123 16 164 29 37 2100 1560 2115 1555 5 -1 469 -339 1030 -750z m534 85 l0
-270 -165 121 -165 121 0 149 0 149 165 0 165 0 0 -270z m-1062 -2872 l2 -628
-505 0 -505 0 0 630 0 630 503 -2 502 -3 3 -627z"/>
<path d="M3871 1027 c-173 -173 -318 -323 -322 -335 -5 -12 -4 -32 0 -45 5
-12 150 -163 323 -335 283 -281 317 -312 346 -312 46 0 82 38 82 87 0 35 -12
49 -232 270 l-232 233 587 0 c571 0 588 1 607 20 45 45 33 112 -25 135 -29 13
-128 15 -602 15 l-568 0 233 233 c209 209 232 235 232 265 0 44 -38 82 -82 82
-30 0 -63 -30 -347 -313z"/>
</g>
</svg>
