<svg xmlns="http://www.w3.org/2000/svg" width="23.821" height="33.317" viewBox="0 0 23.821 33.317">
  <defs>
    <style>
      .cls-1 {
        fill: #ffffff;
      }
    </style>
  </defs>
  <g id="Group_546" data-name="Group 546" transform="translate(-801.758 -502.97)">
    <g id="Group_547" data-name="Group 547" transform="translate(802.894 502.97)">
      <path id="Path_467" data-name="Path 467" class="cls-1" d="M820.385,512.5l-6.45-.02V506.2a1.486,1.486,0,0,0-1.468-1.461h-.031a9.234,9.234,0,0,0-.03,18.467h.031a9.232,9.232,0,0,0,9.232-9.277A1.485,1.485,0,0,0,820.385,512.5Zm-3.509,6.7Zm.894-1.857-.222.333a1.367,1.367,0,0,0-.09.107l-.161.2a6.553,6.553,0,0,1-.655.676c-.048.036-.1.078-.2.169l-.122.1a3.769,3.769,0,0,1-.341.236,8.333,8.333,0,0,1-.771.466.991.991,0,0,0-.276.118l-.052.024-.056.022c-.143.057-.286.1-.451.149a6.871,6.871,0,0,1-1.027.247v0l-.19.022a.667.667,0,0,0-.114.014c-.162.014-.323.013-.546.016a1.681,1.681,0,0,1-.273,0l-.11,0c-.056-.01-.116-.016-.245-.028a1.247,1.247,0,0,0-.222-.024.189.189,0,0,0-.042,0,9.082,9.082,0,0,1-.9-.2c-.088-.024-.173-.053-.253-.081l-.548-.222a9.586,9.586,0,0,1-.854-.464c-.086-.049-.166-.1-.248-.16l-.072-.043c-.065-.057-.134-.11-.2-.159l-.148-.136a6.321,6.321,0,0,1-.045-9.543,2.08,2.08,0,0,0,.223-.181l.068-.056a4.175,4.175,0,0,1,.408-.266,4.268,4.268,0,0,1,.838-.467l.148-.078a1.428,1.428,0,0,0,.16-.061,4.226,4.226,0,0,1,.457-.148c.117-.035.234-.069.351-.1v6.121a1.485,1.485,0,0,0,1.467,1.456h6.116A6.437,6.437,0,0,1,817.77,517.345Zm.172.745h0Z" transform="translate(-803.202 -501.593)"/>
      <path id="Path_468" data-name="Path 468" class="cls-1" d="M820.159,505.271h0a7.286,7.286,0,0,0-2.2-1.568,6.89,6.89,0,0,0-.751-.316c-.04-.01-.078-.023-.134-.041l-.431-.13a7.907,7.907,0,0,0-1.916-.245,1.3,1.3,0,0,0-1.282,1.3v6.248a1.3,1.3,0,0,0,1.289,1.3h6.216l.219-.018a1.271,1.271,0,0,0,.545-.22,1.289,1.289,0,0,0,.566-1.065A7.615,7.615,0,0,0,820.159,505.271Zm-.649,3.948h-3.475v-3.438l.349.066a.741.741,0,0,1,.153.06l.2.078a5.582,5.582,0,0,1,.874.506,1.769,1.769,0,0,0,.175.117,2.036,2.036,0,0,1,.2.178c.117.106.233.211.333.311a3.975,3.975,0,0,1,.521.648c.093.142.19.3.257.42.048.1.1.207.141.274l.059.134A5.863,5.863,0,0,1,819.51,509.219Zm-2.87-5.414Z" transform="translate(-800.669 -502.97)"/>
    </g>
    <g id="Group_544" data-name="Group 544" transform="translate(801.758 527.063)">
      <path id="Path_460" data-name="Path 460" class="cls-1" d="M824.386,529.658a1.532,1.532,0,0,1,0,2.988H802.95a1.532,1.532,0,0,1,0-2.988Z" transform="translate(-801.758 -523.421)"/>
      <path id="Path_461" data-name="Path 461" class="cls-1" d="M824.386,523.17a1.534,1.534,0,0,1,0,2.991H802.95a1.534,1.534,0,0,1,0-2.991Z" transform="translate(-801.758 -523.17)"/>
    </g>
  </g>
</svg>
