<svg xmlns="http://www.w3.org/2000/svg" width="29.224" height="29.224" viewBox="0 0 29.224 29.224">
  <g id="Layer_2" data-name="Layer 2" transform="translate(0 0)">
    <g id="Group_539" data-name="Group 539" transform="translate(0 0)">
      <path id="Path_444" data-name="Path 444" d="M8.558,35.357a1.217,1.217,0,0,0-1.722,0L4.958,37.236,3.079,35.357a1.218,1.218,0,0,0-1.722,1.722l1.879,1.879L1.357,40.836a1.218,1.218,0,1,0,1.722,1.722l1.879-1.879,1.879,1.879a1.218,1.218,0,1,0,1.722-1.722L6.679,38.957l1.879-1.879A1.217,1.217,0,0,0,8.558,35.357Z" transform="translate(-0.391 -13.691)" fill="#ffffff" fill-rule="evenodd"/>
      <path id="Path_445" data-name="Path 445" d="M7.663,17.357l-4.01,4.01L2.079,19.792A1.218,1.218,0,1,0,.357,21.514l2.435,2.435a1.217,1.217,0,0,0,1.722,0l4.871-4.871a1.218,1.218,0,0,0-1.722-1.722Z" transform="translate(0 -6.65)" fill="#ffffff" fill-rule="evenodd"/>
      <path id="Path_446" data-name="Path 446" d="M35.221,22H21.827a1.827,1.827,0,0,0,0,3.653H35.221a1.827,1.827,0,0,0,0-3.653Z" transform="translate(-7.823 -8.606)" fill="#ffffff" fill-rule="evenodd"/>
      <path id="Path_447" data-name="Path 447" d="M7.663.357l-4.01,4.01L2.079,2.792A1.218,1.218,0,1,0,.357,4.514L2.792,6.949a1.217,1.217,0,0,0,1.722,0L9.385,2.079A1.218,1.218,0,0,0,7.663.357Z" transform="translate(0 0)" fill="#ffffff" fill-rule="evenodd"/>
      <path id="Path_448" data-name="Path 448" d="M21.827,8.653H35.221a1.827,1.827,0,0,0,0-3.653H21.827a1.827,1.827,0,0,0,0,3.653Z" transform="translate(-7.823 -1.956)" fill="#ffffff" fill-rule="evenodd"/>
      <path id="Path_449" data-name="Path 449" d="M35.221,39H21.827a1.827,1.827,0,0,0,0,3.653H35.221a1.827,1.827,0,0,0,0-3.653Z" transform="translate(-7.823 -15.255)" fill="#ffffff" fill-rule="evenodd"/>
    </g>
  </g>
</svg>
